<?xml version="1.0" encoding="UTF-8" standalone="no"?>
<svg
   version="1.1"
   id="Layer_1"
   x="0px"
   y="0px"
   width="100%"
   viewBox="0 0 321 155"
   enable-background="new 0 0 321 155"
   xml:space="preserve"
   sodipodi:docname="logo.svg"
   inkscape:version="1.2.2 (b0a8486541, 2022-12-01)"
   xmlns:inkscape="http://www.inkscape.org/namespaces/inkscape"
   xmlns:sodipodi="http://sodipodi.sourceforge.net/DTD/sodipodi-0.dtd"
   xmlns="http://www.w3.org/2000/svg"
   xmlns:svg="http://www.w3.org/2000/svg"><defs
   id="defs125" /><sodipodi:namedview
   id="namedview123"
   pagecolor="#ffffff"
   bordercolor="#000000"
   borderopacity="0.25"
   inkscape:showpageshadow="2"
   inkscape:pageopacity="0.0"
   inkscape:pagecheckerboard="true"
   inkscape:deskcolor="#d1d1d1"
   showgrid="false"
   inkscape:zoom="4.3831776"
   inkscape:cx="160.61407"
   inkscape:cy="77.797441"
   inkscape:window-width="2560"
   inkscape:window-height="1371"
   inkscape:window-x="0"
   inkscape:window-y="0"
   inkscape:window-maximized="1"
   inkscape:current-layer="Layer_1" />
<path
   fill="#000000"
   opacity="1"
   stroke="none"
   d="M 214.90859,141.09215 102.9862,152.94054 c -2e-5,-51.66664 -12.955257,27.2129 -12.955277,-24.45376 104.413687,5.68756 -58.066601,-32.462562 48.933397,-32.462586 45.87767,52.213766 180.657,-22.802494 180.65703,28.864206 -26.83328,1.1e-4 11.30571,15.26265 -16.02763,15.26265 m -68.60796,-38.0727 c 0.004,-12.863827 -0.023,-25.72784 0.0558,-38.591209 0.009,-1.434243 0.61972,-2.864792 0.90874,-3.578198 7.26449,12.467385 14.529,24.934761 22.00226,37.760376 4.3255,-6.94445 8.20242,-12.891083 11.7904,-19.00724 3.58502,-6.11116 6.88092,-12.391945 11.10895,-18.267048 0.0489,12.740787 0.0663,25.481884 0.18896,38.221966 0.0144,1.495263 0.60831,2.984943 0.94007,4.402843 0,0 -0.0743,0.007 0.34243,0.78921 6.08658,0.0636 12.17423,0.21584 18.25916,0.14192 2.09653,-0.0255 4.18619,-0.61487 6.43457,-1.79952 0.005,-6.683844 0.011,-13.367682 0.79541,-20.471068 0.0614,-10.92511 0.13986,-21.850216 0.14261,-32.775334 1.8e-4,-0.667266 -0.59903,-1.334682 -0.88342,-2.843196 -0.0662,-10.010918 -0.13239,-20.02184 -0.42917,-30.887357 -5.43094,-0.05816 -10.8642,-0.235616 -16.29187,-0.128659 -3.13562,0.06179 -6.26218,0.582397 -10.04642,1.149076 -1.05136,1.428381 -2.23929,2.77663 -3.13183,4.298162 -5.79422,9.877413 -11.50498,19.803797 -17.2905,29.686346 -1.24768,2.131226 -2.64713,2.80267 -4.16886,0.09375 -2.68049,-4.771706 -5.37338,-9.5397 -8.20196,-14.224182 -4.06487,-6.731991 -8.25592,-13.387785 -12.82034,-20.853755 -5.12033,-0.06508 -10.24343,-0.25863 -15.35996,-0.147841 -3.15219,0.06826 -6.29431,0.600984 -9.36681,0.942331 0,0 -0.011,-0.07531 -0.77832,0.358854 -0.0103,28.888715 -0.0206,57.777425 0.19935,87.509073 6.73526,0.0471 13.47123,0.16334 20.20529,0.0942 1.75442,-0.018 3.50291,-0.61414 5.39541,-1.87347 M 161.11063,58.030594 c -2.73256,0.05407 -5.46512,0.108139 -8.88073,0.309505 -2.12111,4.87125 -4.24223,9.742504 -7.02795,14.971501 -0.39935,1.207649 -0.64092,2.498802 -1.22751,3.607368 -1.78751,3.378014 -1.52585,6.164711 2.22965,8.819115 0.91185,1.134415 1.82371,2.268822 2.8574,3.857529 0.17926,0.294265 0.44112,0.445762 0.98924,0.965782 0.3048,0.186363 0.60961,0.372726 1.1103,1.11116 0.59979,0.479393 1.19958,0.958786 1.8292,2.108444 0.98597,1.114098 1.97193,2.228195 3.2164,3.961098 1.55214,1.803886 3.1043,3.607774 4.72808,5.372894 0,0 -0.0358,-0.0731 0.38609,0.70574 9.75572,0.0598 19.51141,0.13983 29.2672,0.1541 1.22032,0.002 3.69384,0.52834 1.2863,-2.71425 -3.60785,-3.456671 -7.2157,-6.913351 -10.84838,-11.007551 -0.60636,-0.771599 -1.21273,-1.543205 -2.10292,-2.911583 -1.60141,-1.460724 -3.20283,-2.921448 -4.90168,-5.111328 0.0357,-0.733727 0.0714,-1.467446 0.73774,-2.222901 0.41623,-0.04972 0.83246,-0.09945 1.91263,-0.182022 1.11154,-0.666237 2.22308,-1.332473 4.03047,-2.065704 9.01009,-4.529022 14.53385,-11.987892 17.03179,-21.508091 0.93274,-3.554871 0.31035,-7.517784 0.29912,-12.028351 -0.29186,-1.088981 -0.58371,-2.177963 -1.01874,-4.007747 -0.39485,-1.407357 -0.78969,-2.814717 -1.20565,-4.874222 -0.89404,-1.12809 -1.78808,-2.25618 -2.79293,-4.045067 -0.96691,-1.110552 -1.9338,-2.221102 -2.9986,-4.04397 -1.98155,-1.7934 -3.96309,-3.5868 -6.25992,-6.037331 -4.20576,-1.420048 -8.41154,-2.840095 -12.86265,-4.87393 -0.62493,-0.07014 -1.24987,-0.140291 -2.80501,-0.352938 -14.36925,0.05535 -28.73848,0.110693 -43.64196,0.09909 -0.18956,0.292637 -0.37911,0.585274 -1.27072,1.268303 -0.003,1.879164 -0.006,3.758328 -0.16242,6.428721 0.0499,1.070226 0.0999,2.140451 -9.4e-4,4.034822 0.0514,1.392042 0.10272,2.784084 0.0191,4.96858 0.21526,6.477917 3.87159,7.76854 9.40337,6.244866 0.1532,-0.04219 0.33137,0.0064 0.90033,0.795109 12.20566,0.07357 24.41133,0.147132 36.8195,0.898147 1.58147,1.793251 3.16295,3.586502 4.76988,5.333309 0,0 -0.0466,0.02316 0.0677,0.476857 0,0 0.16088,0.439331 0.0502,0.948947 0.0404,0.169079 0.0808,0.338154 -0.0196,1.257008 -0.73267,2.068882 -1.46535,4.13776 -2.74646,6.458984 -0.77449,0.561974 -1.549,1.123948 -3.02309,1.795353 -1.08072,0.390122 -2.16145,0.780247 -4.0347,1.027951 -1.06982,0.04861 -2.13965,0.09723 -4.10908,0.0067 m 80.06408,72.993819 c -2.27554,-0.23443 -4.55107,-0.46885 -6.8266,-0.70327 0.0699,-0.44039 0.13974,-0.88076 0.2096,-1.32114 1.15863,0 2.31811,0.0281 3.47563,-0.007 1.29759,-0.0399 2.59341,-0.13736 5.09492,-0.27709 -1.55928,-2.33208 -2.47517,-5.13892 -3.75247,-5.31435 -2.69459,-0.37009 -6.08952,-0.14758 -8.2619,1.26749 -3.0793,2.00583 -2.55153,5.29557 -0.0187,7.95436 2.19861,2.30797 8.28324,1.90912 11.70735,-0.83079 1.73182,0.73003 3.46363,1.46004 5.19544,2.19006 0.33653,-1.64937 0.67769,-3.29779 1.00787,-4.94842 0.20464,-1.023 0.39266,-2.04931 0.58814,-3.07413 l 1.21019,0.14765 c 0.1163,2.55075 0.2326,5.1015 0.38876,8.52629 2.32652,-0.89365 4.13841,-1.58962 5.59741,-2.15004 1.82379,0.58706 3.76764,1.21278 6.20697,1.99798 0,-3.31196 0.29664,-5.67084 -0.11328,-7.89978 -0.23898,-1.29961 -1.54889,-3.35898 -2.47967,-3.41659 -5.31964,-0.32923 -10.67012,-0.15992 -16.41077,-0.15992 0,0.27501 3e-5,1.24515 0,2.2153 -5e-5,0.99683 0.2536,2.08484 -0.0636,2.9677 -0.40743,1.13381 -1.27349,2.10282 -2.75521,2.83615 M 82.120857,118.99796 c 3.756829,-0.15911 3.144989,-3.08381 2.802178,-5.147 -1.616921,-9.73151 2.637176,-16.970078 9.658043,-22.858505 8.681142,-7.280907 13.027322,-16.114754 11.459212,-27.599984 -0.52728,-3.861972 0.23463,-8.081791 -1.03217,-11.62313 -2.63867,-7.376435 -7.489657,-12.994545 -13.957461,-18.026085 -11.944618,-9.292145 -25.3349,-8.118641 -38.063991,-5.780911 -15.748028,2.892168 -24.93825,16.349201 -23.90502,32.19426 0.272385,4.177105 -0.880209,7.688663 -3.148121,10.887417 -1.536804,2.167556 -3.572569,3.988372 -5.434217,5.916923 -2.715674,2.813255 -1.676039,5.100807 0.949583,7.167755 1.12721,0.887352 2.316024,1.696457 2.538515,1.858353 0.245948,2.609672 0.322061,4.353294 0.592479,6.066246 0.401007,2.540138 1.160353,5.039894 1.375861,7.589912 0.517829,6.127269 3.832,9.352049 9.957296,9.356579 2.995556,0.002 6.019138,0.25957 8.980068,-0.0606 4.394108,-0.47519 6.474907,0.99964 6.145905,5.62118 -0.225121,3.16224 1.208679,4.60164 4.682129,4.51115 8.481636,-0.22099 16.972923,-0.0719 26.399711,-0.0735 m 139.854883,0.0242 c -0.8963,1.70236 -1.79259,3.40471 -3.63951,6.91259 -0.36998,-6.87356 -4.24803,-7.18345 -8.39029,-7.75692 0,3.86102 0.1665,7.5219 -0.0403,11.16157 -0.28656,5.04285 -0.40673,5.03601 5.10033,4.05193 v -5.4855 c 1.23796,0.99061 2.57843,2.9 3.85919,2.86079 1.37461,-0.0421 2.69313,-1.9157 4.13523,-3.06933 v 5.95289 h 4.67974 V 118.9994 c -1.81993,0 -3.31788,0 -5.70437,0.0228 m -64.90735,18.45869 c 10.90512,1.8765 12.47275,-0.2618 10.49478,-14.31524 -10.84827,-0.62634 -12.22536,-0.19678 -12.47473,4.82251 -0.24649,4.96133 2.65732,6.93134 7.67657,6.07009 -2.17053,0.95445 -3.96496,1.74353 -5.69662,3.42264 m -16.0898,-5.55583 c -0.97829,-1.6512 -1.95657,-3.3024 -2.93486,-4.95361 0.84703,-2.2011 1.41254,-6.02928 0.7531,-6.25341 -3.6396,-1.23701 -7.57807,-1.59476 -11.56368,-2.27965 v 15.34836 h 4.52221 c 0.20251,-1.72008 0.38035,-3.23057 0.72181,-6.1308 1.54822,2.19461 2.4429,3.2278 3.07314,4.40282 1.53612,2.86397 3.33243,2.81123 5.42828,-0.13371 m 125.75212,-8.09087 c -1.72394,1.93255 -3.47278,3.45321 -1.95532,6.7726 1.67682,3.66791 4.34274,3.34726 7.30133,3.41458 3.63217,0.0826 4.92774,-1.73816 4.97128,-5.18829 0.0436,-3.45413 -0.71441,-5.93967 -4.80468,-5.82908 -1.6568,0.0448 -3.31247,0.13211 -5.51261,0.83019 m -95.65295,10.14835 h 9.7283 c 0.55612,-11.60272 -1.69992,-13.57359 -11.18333,-9.78205 2.55564,0.728 4.76336,1.35688 6.97108,1.98577 -7.51625,1.11136 -8.54466,2.27266 -5.51605,7.79628 m -25.99564,-10.96779 c -1.28386,2.19745 -3.2574,4.30122 -3.57371,6.63008 -0.16963,1.24878 2.46786,4.04509 3.91464,4.09889 2.81518,0.10472 6.62808,2.0896 8.79741,-2.22615 -2.82811,-0.47423 -5.35207,-0.89744 -7.87602,-1.32066 0.0834,-0.45094 0.16681,-0.90187 0.25023,-1.35282 h 7.32666 c 0.55815,-6.85829 -4.10642,-5.7873 -8.83921,-5.82934 M 301.5947,134 h 5.22775 c 0.5079,-11.60626 -1.76782,-13.58765 -11.19763,-9.79725 2.55532,0.72618 4.76452,1.35399 6.97372,1.98181 -0.79562,0.73682 -1.452,0.85884 -2.09204,0.80077 -2.79648,-0.25372 -5.27591,0.54983 -5.39005,3.59261 -0.14028,3.73975 2.85169,3.63468 6.47825,3.42206 m -106.80341,-8.73735 c 0.60478,0.44767 1.20956,0.89533 2.34714,1.73739 -1.54846,0 -2.76802,-0.37268 -3.45597,0.0738 -1.68428,1.09307 -4.16386,2.39272 -4.41642,3.92378 -0.37777,2.28988 1.78752,3.29473 4.31503,3.05185 2.40344,-0.23095 4.84648,-0.0497 7.2319,-0.0497 0.52922,-11.5069 -1.90686,-13.62562 -12.0901,-9.39771 2.62051,0.20601 3.94891,0.31045 6.06842,0.66062 m -9.28836,8.73666 c 0.83202,-0.81428 2.32881,-1.587 2.38275,-2.44992 0.25432,-4.06826 0.1133,-8.16122 0.1133,-12.57516 -1.95009,0.0996 -3.44391,0.17599 -4.99881,0.25545 0,4.30914 -0.10469,8.10121 0.0713,11.88021 0.0458,0.98273 0.96804,1.92461 2.43143,2.88942 m 97.80542,-0.0538 c 0.34988,-2.52946 0.69977,-5.05894 1.03165,-7.45811 1.32953,-0.83058 2.62573,-1.64032 5.08963,-3.17955 h -10.42951 c 0,2.76004 0.22583,5.24006 -0.0577,7.66041 -0.34686,2.96112 1.18494,3.288 4.36591,2.97725 m 7.25436,0.0498 c 2.17383,0.20154 3.85404,0.0826 3.49805,-2.97477 -0.29709,-2.55149 -0.0609,-5.16506 -0.0609,-7.82172 h -5.24918 c 0.30524,3.72487 0.59259,7.23119 1.81204,10.79649 z"
   id="path2"
   sodipodi:nodetypes="cccccccsccscsccsccsccscsssscscccscccccccccccccscccccccscccccccccccccscccccccccccccscsssccscccccsscsscccssssssssscssssssccccsccscccccccsccccsccccsccsssscccccccsscccccccccsscccsssccccsccscccccsccscccc"
   style="fill:none" />
<path
   fill="#C2C373"
   opacity="1.000000"
   stroke="none"
   d=" M280.046570,60.063709   C276.623932,66.270134 273.328033,72.550919 269.743011,78.662079   C266.155029,84.778236 262.278107,90.724869 257.952606,97.669319   C250.479355,84.843704 243.214844,72.376328 235.809326,59.204929   C235.115005,59.850533 234.096375,61.194691 234.080475,62.550613   C233.922546,76.009491 233.930420,89.470306 233.432648,102.962463   C225.346344,102.966331 217.718765,102.938316 210.055847,102.448524   C209.998001,73.295967 209.975494,44.605186 209.952988,15.914409   C209.952988,15.914409 209.964035,15.989720 210.403229,16.007866   C218.934296,16.008299 227.026169,15.990588 235.118027,15.972878   C239.255219,22.661200 243.446274,29.316994 247.511139,36.048985   C250.339722,40.733467 253.032608,45.501461 255.713104,50.273167   C257.234833,52.982090 258.634277,52.310646 259.881958,50.179420   C265.667480,40.296871 271.378235,30.370487 277.172455,20.493074   C278.065002,18.971542 279.252930,17.623293 281.100342,16.107967   C290.221954,16.023714 298.547577,16.026403 306.873169,16.029093   C306.939362,26.040012 307.005554,36.050934 307.009094,46.955063   C306.975555,59.265491 307.004608,70.682709 307.033661,82.099922   C307.028137,88.783768 307.022644,95.467606 306.480072,102.570404   C297.930908,103.001968 289.918823,103.014595 281.906738,103.027214   C281.906738,103.027214 281.980988,103.019844 281.984009,102.582336   C281.987000,87.570992 281.987000,72.997169 281.987000,58.423340   C281.529358,58.398823 281.071747,58.374302 280.614105,58.349785   C280.424927,58.921093 280.235748,59.492401 280.046570,60.063709  z"
   id="path4" />
<path
   fill="#FFFFFF"
   opacity="1.000000"
   stroke="none"
   d=" M81.651169,118.998825   C72.694069,118.999588 64.202782,118.850510 55.721146,119.071495   C52.247696,119.161987 50.813896,117.722595 51.039017,114.560349   C51.368019,109.938805 49.287220,108.463982 44.893112,108.939171   C41.932182,109.259361 38.908600,109.001999 35.913044,108.999786   C29.787748,108.995255 26.473577,105.770485 25.955748,99.643211   C25.740240,97.093193 24.980894,94.593437 24.579887,92.053299   C24.309469,90.340347 24.233356,88.596725 23.987408,85.987053   C23.764917,85.825157 22.576103,85.016052 21.448893,84.128700   C18.823271,82.061752 17.783636,79.774200 20.499310,76.960945   C22.360958,75.032394 24.396723,73.211578 25.933527,71.044022   C28.201439,67.845268 29.354033,64.333710 29.081648,60.156605   C28.048418,44.311546 37.238640,30.854513 52.986668,27.962345   C65.715759,25.624615 79.106041,24.451111 91.050659,33.743256   C97.518463,38.774796 102.369453,44.392906 105.008118,51.769341   C106.274918,55.310680 105.513008,59.530499 106.040291,63.392471   C107.608398,74.877701 103.262222,83.711548 94.581078,90.992455   C87.560211,96.880882 83.306114,104.119453 84.923035,113.850960   C85.265846,115.914146 85.877686,118.838852 81.651169,118.998825  M85.134094,88.994675   C82.259308,88.458984 79.384521,87.923286 75.697487,87.236244   C76.264618,90.620522 77.032753,92.847557 76.855789,94.996780   C76.742355,96.374504 75.235321,97.637489 74.352997,98.951904   C73.568855,97.755196 71.997566,96.454041 72.140053,95.380295   C72.688034,91.250671 70.710480,89.270409 67.293358,87.625465   C63.353539,85.728920 59.825706,83.145996 59.633011,78.140114   C59.557922,76.189384 59.829998,74.225281 59.950535,72.153969   C48.484619,75.131973 38.401836,68.171585 34.933754,55.335766   C37.086472,65.579369 33.382286,73.676773 25.206388,80.277992   C33.312737,84.675385 31.410660,92.671394 31.338272,98.212219   C31.248676,105.070374 34.708599,102.339371 37.620323,103.135071   C38.338428,100.251785 38.999310,97.598267 39.660191,94.944756   C40.003975,94.962746 40.347755,94.980743 40.691536,94.998741   C40.878952,97.623962 41.066368,100.249184 41.249088,102.808601   C53.897236,103.441025 56.040806,104.913452 57.541859,113.699158   C64.196747,113.699158 70.831772,113.699158 76.175049,113.699158   C76.175049,112.406174 75.937874,111.332825 76.241508,110.444275   C76.547516,109.548790 77.957420,108.801979 77.911125,108.049873   C77.428055,100.200813 82.160126,94.935501 87.258461,89.165039   C89.466011,87.009247 91.673561,84.853455 93.881111,82.697662   C89.226585,82.446594 87.018028,85.026672 85.134094,88.994675  M50.008793,51.509773   C51.104954,52.291130 52.201111,53.072491 53.935368,54.308697   C51.746132,55.378677 50.392345,56.040340 49.038555,56.702000   C49.008026,57.167500 48.977501,57.632996 48.946972,58.098495   C50.429790,58.098495 51.977806,58.371769 53.380768,58.037048   C55.722973,57.478249 57.972408,56.530617 60.294746,55.735081   C60.294746,53.236568 59.682060,49.599548 60.672306,46.469669   C60.965096,45.544250 65.779800,46.049496 69.245552,45.859482   C68.717972,44.345448 67.962517,42.177460 67.357895,40.442333   C65.612556,42.112503 64.346672,43.323868 62.251141,45.329147   C62.061028,42.332581 61.968838,40.879463 61.856579,39.110043   C59.632088,38.913986 57.541523,38.729736 56.248249,38.615753   C56.845699,42.644043 57.418228,46.040794 57.733269,49.461258   C57.760021,49.751720 56.051620,50.547142 55.177086,50.506729   C53.078014,50.409744 50.995480,49.954884 48.906269,49.644440   C49.071075,50.107422 49.235886,50.570400 50.008793,51.509773  M84.577965,77.089066   C87.935318,76.673065 91.292664,76.257057 94.305542,75.883736   C92.971474,72.336006 91.741066,69.063980 90.052208,64.572769   C88.017738,73.356743 88.017738,73.356743 85.800232,73.648628   C84.818909,71.424194 83.881775,69.299934 82.944641,67.175674   C83.124153,73.312508 77.387062,70.515205 74.443665,72.052101   C78.148445,74.006424 80.964073,75.491707 84.577965,77.089066  M69.719109,65.155357   C72.416603,65.672951 75.257332,66.903969 77.750427,66.403435   C78.974297,66.157722 79.553444,62.700691 80.980927,59.416500   C77.516533,61.064224 75.603676,62.025108 73.647453,62.887653   C72.180504,63.534458 70.657776,64.054756 69.719109,65.155357  M83.961990,60.359116   C83.961990,61.909142 83.961990,63.459171 83.961990,65.153557   C89.813934,63.648010 86.689972,59.840805 86.805542,57.162277   C86.834511,56.490917 84.667671,55.066727 83.623970,55.167618   C82.201439,55.305126 80.888222,56.573467 79.405205,57.427761   C81.624710,58.488117 82.792206,59.045879 83.961990,60.359116  M96.707619,66.781555   C96.707619,63.649208 96.707619,60.516861 96.707619,57.025505   C94.377693,58.100246 92.853302,58.803410 90.961884,59.675873   C92.601875,62.099472 94.245560,64.528519 96.707619,66.781555  M82.848907,48.998611   C81.683914,48.697311 80.518921,48.396015 79.146683,48.041115   C79.146683,49.455387 79.146683,50.562218 79.146683,51.327236   C80.774826,51.058189 82.881287,50.013256 83.913788,50.666302   C87.424095,52.886543 90.053818,51.940678 93.819252,48.208118   C89.694992,48.531456 86.706314,48.765762 82.848907,48.998611  M65.995483,58.355194   C65.818642,59.185982 65.641800,60.016766 65.337563,61.446060   C68.386749,59.383694 70.934822,57.660263 73.482895,55.936832   C70.712471,55.422474 68.714394,55.642441 66.760887,56.067318   C66.400635,56.145676 66.220734,57.053246 65.995483,58.355194  M73.992851,51.779869   C73.914047,52.472698 73.835236,53.165527 73.756432,53.858353   C74.023865,53.875443 74.291298,53.892532 74.558731,53.909622   C74.558731,52.449223 74.558731,50.988823 74.558731,49.528419   C74.459595,49.519211 74.360458,49.509998 74.261322,49.500786   C74.174507,49.976509 74.087692,50.452229 73.992851,51.779869  z"
   id="path6" />
<path
   fill="#8492DC"
   opacity="1.000000"
   stroke="none"
   d=" M175.164719,47.991825   C175.124344,47.822746 175.083954,47.653671 175.294769,47.119377   C175.781525,46.552948 175.941391,46.303272 176.492340,46.003021   C184.016403,45.652847 191.073700,45.304802 198.130997,44.956757   C198.044296,48.733616 198.666687,52.696529 197.733948,56.251400   C195.236008,65.771599 189.712250,73.230469 180.340393,77.381241   C179.652618,74.242493 179.120178,71.487656 179.044388,68.720314   C178.895264,63.275249 178.938156,57.822258 179.025162,52.374519   C179.069061,49.625111 178.305511,47.822777 175.164719,47.991825  z"
   id="path8" />
<path
   fill="#9DA8E3"
   opacity="1.000000"
   stroke="none"
   d=" M132.933899,39.044907   C132.767365,39.038639 132.589188,38.990028 132.435989,39.032223   C126.904213,40.555897 123.247879,39.265274 123.476768,32.393185   C125.697502,32.136089 127.475304,32.404392 129.250458,32.387947   C137.791824,32.308830 146.332092,32.091148 154.873459,32.038696   C167.624176,31.960388 180.375488,31.979273 193.126556,31.956810   C194.020599,33.084900 194.914642,34.212990 195.407166,35.681252   C187.159500,36.347580 179.308136,36.589329 171.471710,37.073154   C169.956543,37.166706 168.499802,38.206654 166.549042,38.867599   C155.032639,38.965076 143.983261,39.004993 132.933899,39.044907  z"
   id="path10" />
<path
   fill="#B7BFEA"
   opacity="1.000000"
   stroke="none"
   d=" M123.168015,22.992725   C123.170975,21.113562 123.173927,19.234398 123.752319,17.084732   C124.629234,16.676792 124.847267,16.456676 124.981842,16.153883   C139.351089,16.098537 153.720322,16.043190 168.745789,16.292601   C169.981323,16.716425 170.560623,16.835495 171.139923,16.954567   C175.345688,18.374617 179.551468,19.794664 183.630005,21.860518   C181.868668,22.671103 180.234802,22.976389 178.600433,22.979156   C160.123001,23.010445 141.645493,22.995371 123.168015,22.992725  z"
   id="path12" />
<path
   fill="#ADB6E8"
   opacity="1.000000"
   stroke="none"
   d=" M123.091248,23.388340   C141.645493,22.995371 160.123001,23.010445 178.600433,22.979156   C180.234802,22.976389 181.868668,22.671103 183.787628,22.189083   C186.054062,23.665243 188.035599,25.458643 189.590088,27.618576   C169.434494,27.990179 149.705872,28.027800 129.977646,27.955992   C127.705376,27.947721 125.435326,27.329859 123.164261,26.994633   C123.114326,25.924406 123.064400,24.854181 123.091248,23.388340  z"
   id="path14" />
<path
   fill="#A4AFE6"
   opacity="1.000000"
   stroke="none"
   d=" M123.088890,27.406704   C125.435326,27.329859 127.705376,27.947721 129.977646,27.955992   C149.705872,28.027800 169.434494,27.990179 189.639038,27.974735   C191.081955,29.074911 192.048843,30.185461 193.071152,31.626411   C180.375488,31.979273 167.624176,31.960388 154.873459,32.038696   C146.332092,32.091148 137.791824,32.308830 129.250458,32.387947   C127.475304,32.404392 125.697502,32.136089 123.544266,31.996960   C123.116249,30.602861 123.064888,29.210819 123.088890,27.406704  z"
   id="path16" />
<path
   fill="#FEFEFE"
   opacity="1.000000"
   stroke="none"
   d=" M222.419998,119.010757   C224.362228,118.999344 225.860184,118.999344 227.680115,118.999344   C227.680115,123.801514 227.680115,128.547119 227.680115,133.650177   C226.361786,133.650177 224.848831,133.650177 223.000366,133.650177   C223.000366,131.567520 223.000366,129.524826 223.000366,127.697289   C221.558273,128.850922 220.239746,130.724518 218.865143,130.766617   C217.584381,130.805832 216.243912,128.896439 215.005951,127.905830   C215.005951,129.468521 215.005951,131.446243 215.005951,133.391327   C209.498886,134.375412 209.619064,134.382248 209.905624,129.339401   C210.112442,125.699730 209.945938,122.038849 209.945938,118.177826   C214.088196,118.751297 217.966248,119.061195 218.336227,125.934753   C220.183151,122.426865 221.079437,120.724518 222.419998,119.010757  z"
   id="path18" />
<path
   fill="#FBFBFD"
   opacity="1.000000"
   stroke="none"
   d=" M241.987946,131.331085   C242.656433,130.291077 243.522491,129.322067 243.929916,128.188263   C244.247162,127.305405 243.993515,126.217392 243.993561,125.220558   C243.993591,124.250412 243.993561,123.280266 243.993561,123.005264   C249.734207,123.005264 255.084686,122.835953 260.404327,123.165176   C261.335114,123.222786 262.645020,125.282158 262.884003,126.581772   C263.293915,128.810715 262.997284,131.169586 262.997284,134.481552   C260.557953,133.696350 258.614105,133.070633 256.790314,132.483566   C255.331314,133.043991 253.519424,133.739960 251.192902,134.633606   C251.036743,131.208817 250.920441,128.658066 250.804138,126.107323   C250.400742,126.058105 249.997345,126.008888 249.593948,125.959671   C249.398468,126.984489 249.210449,128.010803 249.005814,129.033798   C248.675629,130.684433 248.334473,132.332855 247.997940,133.982224   C246.266129,133.252197 244.534317,132.522186 242.390244,131.718079   C241.977982,131.643997 241.987946,131.331070 241.987946,131.331085  z"
   id="path20" />
<path
   fill="#FDFDFE"
   opacity="1.000000"
   stroke="none"
   d=" M157.036987,137.035843   C158.800049,135.801743 160.594482,135.012665 162.765015,134.058212   C157.745758,134.919464 154.841949,132.949448 155.088440,127.988121   C155.337814,122.968834 156.714905,122.539268 167.563171,123.165611   C169.541138,137.219055 167.973511,139.357346 157.036987,137.035843  z"
   id="path22" />
<path
   fill="#FFFFFF"
   opacity="1.000000"
   stroke="none"
   d=" M140.985016,132.333099   C138.882736,134.869965 137.086426,134.922699 135.550308,132.058731   C134.920074,130.883713 134.025391,129.850525 132.477173,127.655907   C132.135712,130.556137 131.957870,132.066635 131.755356,133.786713   C130.328278,133.786713 128.898544,133.786713 127.233154,133.786713   C127.233154,129.054642 127.233154,124.309105 127.233154,118.438347   C131.218765,119.123245 135.157227,119.480988 138.796829,120.718002   C139.456268,120.942131 138.890762,124.770309 138.043732,126.971413   C139.022018,128.622620 140.000305,130.273819 140.985016,132.333099  z"
   id="path24" />
<path
   fill="#97A3E2"
   opacity="1.000000"
   stroke="none"
   d=" M160.863068,103.153755   C159.310928,101.349869 157.758774,99.545982 156.222076,97.120461   C159.891190,93.407471 163.460449,90.207855 167.231506,87.267006   C169.355392,85.610710 171.812027,84.381104 174.118759,82.959274   C175.720169,84.419998 177.321594,85.880722 178.685196,87.663284   C176.107498,89.429916 173.490829,90.569427 171.487534,92.385521   C167.757523,95.766975 164.384613,99.542343 160.863068,103.153755  z"
   id="path26" />
<path
   fill="#B7BFEA"
   opacity="1.000000"
   stroke="none"
   d=" M145.961197,85.134117   C142.448593,83.083679 142.186935,80.296982 143.974442,76.918968   C144.561035,75.810402 144.802597,74.519249 145.914856,73.142899   C150.421463,70.306870 154.215134,67.639542 158.299927,65.103653   C159.308090,65.689690 160.025146,66.144279 160.822510,66.887833   C161.678238,68.421722 162.453644,69.666641 162.848633,70.938370   C157.334198,74.660202 152.155258,78.295998 147.116089,82.116188   C146.387329,82.668655 146.329514,84.106171 145.961197,85.134117  z"
   id="path28" />
<path
   fill="#8593DD"
   opacity="1.000000"
   stroke="none"
   d=" M181.050751,90.890564   C184.658600,94.347229 188.266449,97.803909 191.724487,101.947586   C184.720261,102.717232 177.865814,102.799866 171.047150,102.545441   C174.405518,98.435776 177.728134,94.663170 181.050751,90.890564  z"
   id="path30" />
<path
   fill="#A0AAE4"
   opacity="1.000000"
   stroke="none"
   d=" M174.070038,82.594696   C171.812027,84.381104 169.355392,85.610710 167.231506,87.267006   C163.460449,90.207855 159.891190,93.407471 156.092819,96.811050   C154.962158,96.009193 153.976196,94.895096 153.016174,93.092163   C154.311386,90.960716 155.475525,89.406158 156.869858,88.096733   C160.861908,84.347786 164.947327,80.698288 169.298431,77.155441   C171.110062,78.210442 172.619278,79.119698 174.128510,80.028946   C174.092773,80.762672 174.057053,81.496391 174.070038,82.594696  z"
   id="path32" />
<path
   fill="#808CD2"
   opacity="1.000000"
   stroke="none"
   d=" M175.094330,48.366714   C178.305511,47.822777 179.069061,49.625111 179.025162,52.374519   C178.938156,57.822258 178.895264,63.275249 179.044388,68.720314   C179.120178,71.487656 179.652618,74.242493 179.992462,77.414734   C178.894775,78.492722 177.783234,79.158958 176.274536,79.437027   C175.584900,72.600388 175.420822,66.141739 174.910706,59.710529   C174.781250,58.078247 173.550598,56.533310 172.825928,54.948238   C173.558609,52.879360 174.291290,50.810482 175.094330,48.366714  z"
   id="path34" />
<path
   fill="#8D9ADF"
   opacity="1.000000"
   stroke="none"
   d=" M181.038330,90.571793   C177.728134,94.663170 174.405518,98.435776 170.591858,102.595779   C167.033493,103.002739 163.966202,103.022308 160.898895,103.041885   C160.898895,103.041885 160.934708,103.114990 160.898895,103.134369   C164.384613,99.542343 167.757523,95.766975 171.487534,92.385521   C173.490829,90.569427 176.107498,89.429916 178.827103,87.961670   C179.813187,88.709824 180.419556,89.481430 181.038330,90.571793  z"
   id="path36" />
<path
   fill="#A8B1E6"
   opacity="1.000000"
   stroke="none"
   d=" M168.996033,77.009689   C164.947327,80.698288 160.861908,84.347786 156.869858,88.096733   C155.475525,89.406158 154.311386,90.960716 153.001251,92.757034   C152.360611,92.631340 151.760818,92.151947 150.951874,91.149017   C150.444168,90.433678 150.145615,90.241890 149.847061,90.050102   C149.502609,90.041374 149.240753,89.889877 149.138733,89.046555   C150.259796,87.273567 151.209930,85.952072 152.364304,84.843201   C156.559280,80.813515 160.822647,76.855019 165.335739,73.026634   C166.724060,74.136398 167.836838,75.089218 168.958954,76.284058   C168.968292,76.526085 168.996033,77.009682 168.996033,77.009689  z"
   id="path38" />
<path
   fill="#FFFFFF"
   opacity="1.000000"
   stroke="none"
   d=" M267.002686,123.519104   C268.930847,123.136070 270.586517,123.048752 272.243317,123.003960   C276.333588,122.893372 277.091614,125.378906 277.048004,128.833038   C277.004456,132.283173 275.708893,134.103973 272.076721,134.021332   C269.118134,133.954010 266.452209,134.274658 264.775391,130.606750   C263.257935,127.287361 265.006775,125.766701 267.002686,123.519104  z"
   id="path40" />
<path
   fill="#95A1E1"
   opacity="1.000000"
   stroke="none"
   d=" M167.016098,38.810032   C168.499802,38.206654 169.956543,37.166706 171.471710,37.073154   C179.308136,36.589329 187.159500,36.347580 195.417725,36.007324   C196.224640,37.400585 196.619476,38.807945 196.606873,40.598385   C188.987640,40.981468 181.775864,40.981468 174.465790,40.981468   C174.653732,43.197884 174.776993,44.651554 174.900253,46.105225   C173.318771,44.311981 171.737289,42.518730 169.847626,40.133240   C168.698318,39.297340 167.857208,39.053684 167.016098,38.810032  z"
   id="path42" />
<path
   fill="#7984C7"
   opacity="1.000000"
   stroke="none"
   d=" M169.298431,77.155441   C168.996033,77.009682 168.968292,76.526085 169.264771,75.989708   C169.692184,69.264389 169.823090,63.075447 169.954010,56.886505   C170.728500,56.324532 171.503006,55.762558 172.551712,55.074409   C173.550598,56.533310 174.781250,58.078247 174.910706,59.710529   C175.420822,66.141739 175.584900,72.600388 175.942566,79.453445   C175.591522,79.907768 175.175293,79.957497 174.443787,80.018082   C172.619278,79.119698 171.110062,78.210442 169.298431,77.155441  z"
   id="path44" />
<path
   fill="#AFB8E8"
   opacity="1.000000"
   stroke="none"
   d=" M165.060211,72.869682   C160.822647,76.855019 156.559280,80.813515 152.364304,84.843201   C151.209930,85.952072 150.259796,87.273567 149.077805,88.819412   C148.027802,88.006905 147.115936,86.872498 146.082642,85.436096   C146.329514,84.106171 146.387329,82.668655 147.116089,82.116188   C152.155258,78.295998 157.334198,74.660202 163.064819,70.944489   C163.661407,70.923798 164.095627,70.960304 164.178192,71.216782   C164.527237,71.938728 164.793716,72.404205 165.060211,72.869682  z"
   id="path46" />
<path
   fill="#8D9ADF"
   opacity="1.000000"
   stroke="none"
   d=" M174.912979,46.082008   C174.776993,44.651554 174.653732,43.197884 174.465790,40.981468   C181.775864,40.981468 188.987640,40.981468 196.678452,40.968788   C197.449356,42.045086 197.741211,43.134068 198.082031,44.589905   C191.073700,45.304802 184.016403,45.652847 176.205109,46.015312   C175.260452,46.047142 175.069778,46.064545 174.879105,46.081951   C174.879105,46.081951 174.925705,46.058788 174.912979,46.082008  z"
   id="path48" />
<path
   fill="#FFFFFF"
   opacity="1.000000"
   stroke="none"
   d=" M170.659271,133.857147   C168.049149,128.458878 169.077560,127.297577 176.593811,126.186218   C174.386093,125.557335 172.178375,124.928452 169.622726,124.200447   C179.106140,120.408905 181.362183,122.379784 180.806061,133.982498   C177.598816,133.982498 174.338287,133.982498 170.659271,133.857147  z"
   id="path50" />
<path
   fill="#FFFFFF"
   opacity="1.000000"
   stroke="none"
   d=" M145.504700,123.007843   C149.814911,123.056755 154.479477,121.985764 153.921326,128.844055   C151.476791,128.844055 149.035721,128.844055 146.594666,128.844055   C146.511246,129.294998 146.427841,129.745926 146.344437,130.196869   C148.868393,130.620087 151.392349,131.043304 154.220459,131.517532   C152.051132,135.833282 148.238235,133.848404 145.423050,133.743683   C143.976273,133.689880 141.338776,130.893570 141.508408,129.644791   C141.824722,127.315926 143.798264,125.212158 145.504700,123.007843  z"
   id="path52" />
<path
   fill="#FFFFFF"
   opacity="1.000000"
   stroke="none"
   d=" M301.135376,134.000000   C297.968140,134.212616 294.976166,134.317688 295.116455,130.577942   C295.230591,127.535156 297.710022,126.731606 300.506500,126.985329   C301.146545,127.043396 301.802917,126.921379 302.598541,126.184555   C300.389343,125.556740 298.180145,124.928932 295.624817,124.202751   C305.054626,120.412354 307.330353,122.393745 306.822449,134.000000   C305.104218,134.000000 303.349457,134.000000 301.135376,134.000000  z"
   id="path54" />
<path
   fill="#FFFFFF"
   opacity="1.000000"
   stroke="none"
   d=" M241.581329,131.177734   C241.987946,131.331070 241.977982,131.643997 241.986862,131.800140   C239.378387,134.532074 233.293762,134.930923 231.095154,132.622955   C228.562363,129.964157 228.034592,126.674416 231.113892,124.668594   C233.286270,123.253517 236.681198,123.031013 239.375793,123.401100   C240.653091,123.576530 241.568985,126.383369 243.128265,128.715454   C240.626755,128.855179 239.330933,128.952667 238.033340,128.992538   C236.875824,129.028107 235.716339,129.000000 234.557709,129.000000   C234.487854,129.440384 234.417984,129.880753 234.348114,130.321136   C236.623642,130.555557 238.899170,130.789978 241.581329,131.177734  z"
   id="path56" />
<path
   fill="#FFFFFF"
   opacity="1.000000"
   stroke="none"
   d=" M194.395752,125.139786   C192.671783,124.912476 191.343384,124.808044 188.722870,124.602028   C198.906113,120.374115 201.342194,122.492844 200.812973,133.999741   C198.427551,133.999741 195.984512,133.818527 193.581070,134.049484   C191.053558,134.292358 188.888275,133.287506 189.266037,130.997635   C189.518600,129.466568 191.998184,128.166916 193.682465,127.073845   C194.370407,126.627365 195.589966,127.000038 197.138428,127.000038   C196.000854,126.157982 195.396072,125.710320 194.395752,125.139786  z"
   id="path58" />
<path
   fill="#E1E1BA"
   opacity="1.000000"
   stroke="none"
   d=" M209.569351,16.131491   C209.975494,44.605186 209.998001,73.295967 209.822372,102.482063   C209.624252,102.977379 209.154770,103.014717 209.154770,103.014717   C209.165085,74.125999 209.175400,45.237289 209.569351,16.131491  z"
   id="path60" />
<path
   fill="#BEC5EC"
   opacity="1.000000"
   stroke="none"
   d=" M158.008804,64.972206   C154.215134,67.639542 150.421463,70.306870 146.247162,72.964027   C147.987671,68.082603 150.108795,63.211349 152.631516,58.591454   C154.691681,60.885944 156.350235,62.929073 158.008804,64.972206  z"
   id="path62" />
<path
   fill="#737EBC"
   opacity="1.000000"
   stroke="none"
   d=" M165.335724,73.026634   C164.793716,72.404205 164.527237,71.938728 164.519653,71.158134   C165.189789,66.617447 165.601013,62.391876 166.012238,58.166306   C167.092957,57.776184 168.173691,57.386059 169.604218,56.941223   C169.823090,63.075447 169.692184,69.264389 169.255447,75.747681   C167.836838,75.089218 166.724060,74.136398 165.335724,73.026634  z"
   id="path64" />
<path
   fill="#FFFFFF"
   opacity="1.000000"
   stroke="none"
   d=" M185.031067,133.997223   C184.039536,133.034500 183.117279,132.092621 183.071503,131.109894   C182.895477,127.330894 183.000168,123.538818 183.000168,119.229675   C184.555069,119.150215 186.048889,119.073875 187.998978,118.974228   C187.998978,123.388168 188.139999,127.481133 187.885681,131.549393   C187.831741,132.412308 186.334946,133.185028 185.031067,133.997223  z"
   id="path66" />
<path
   fill="#FFFFFF"
   opacity="1.000000"
   stroke="none"
   d=" M282.847473,133.970871   C280.127380,134.256226 278.595581,133.929352 278.942444,130.968231   C279.225952,128.547882 279.000122,126.067863 279.000122,123.307816   C282.035492,123.307816 284.903198,123.307816 289.429626,123.307816   C286.965729,124.847046 285.669525,125.656792 284.339996,126.487373   C284.008118,128.886536 283.658234,131.416016 282.847473,133.970871  z"
   id="path68" />
<path
   fill="#FFFFFF"
   opacity="1.000000"
   stroke="none"
   d=" M290.096649,133.965759   C289.343262,130.429947 289.055908,126.923630 288.750671,123.198761   C290.750885,123.198761 292.141632,123.198761 293.999847,123.198761   C293.999847,125.855423 293.763672,128.468994 294.060760,131.020477   C294.416748,134.077835 292.736542,134.196793 290.096649,133.965759  z"
   id="path70" />
<path
   fill="#6670A5"
   opacity="1.000000"
   stroke="none"
   d=" M158.299927,65.103653   C156.350235,62.929073 154.691681,60.885944 152.973038,58.517807   C155.645508,58.138733 158.378067,58.084663 161.557404,58.516258   C161.583511,61.534237 161.162857,64.066551 160.742203,66.598862   C160.025146,66.144279 159.308090,65.689690 158.299927,65.103653  z"
   id="path72" />
<path
   fill="#F8F8EE"
   opacity="1.000000"
   stroke="none"
   d=" M280.449280,60.229370   C280.235748,59.492401 280.424927,58.921093 280.614105,58.349785   C281.071747,58.374302 281.529358,58.398823 281.987000,58.423340   C281.987000,72.997169 281.987000,87.570992 281.980774,102.619507   C281.649231,101.601936 281.055328,100.112259 281.040924,98.616997   C280.918274,85.876915 280.900879,73.135818 280.449280,60.229370  z"
   id="path74" />
<path
   fill="#EAEACF"
   opacity="1.000000"
   stroke="none"
   d=" M233.891403,102.930580   C233.930420,89.470306 233.922546,76.009491 234.080475,62.550613   C234.096375,61.194691 235.115005,59.850533 235.830658,58.845501   C235.661331,60.622349 235.050415,62.052898 235.041611,63.487141   C234.962769,76.350510 234.989838,89.214523 234.676392,102.529327   C234.367020,102.980301 233.891403,102.930580 233.891403,102.930580  z"
   id="path76" />
<path
   fill="#6B75B0"
   opacity="1.000000"
   stroke="none"
   d=" M160.822510,66.887833   C161.162857,64.066551 161.583511,61.534237 162.007202,58.585831   C163.080063,58.121120 164.149887,58.072502 165.615967,58.095097   C165.601013,62.391876 165.189789,66.617447 164.437103,70.901657   C164.095627,70.960304 163.661407,70.923798 163.445221,70.917679   C162.453644,69.666641 161.678238,68.421722 160.822510,66.887833  z"
   id="path78" />
<path
   fill="#FCFCFE"
   opacity="1.000000"
   stroke="none"
   d=" M166.549042,38.867599   C167.857208,39.053684 168.698318,39.297340 169.746368,39.794514   C157.747650,39.974464 145.541977,39.900898 133.135101,39.436119   C143.983261,39.004993 155.032639,38.965076 166.549042,38.867599  z"
   id="path80" />
<path
   fill="#FEFEFD"
   opacity="1.000000"
   stroke="none"
   d=" M307.423096,81.890152   C307.004608,70.682709 306.975555,59.265491 306.991150,47.375648   C307.356140,47.570366 307.955353,48.237782 307.955170,48.905048   C307.952423,59.830166 307.873993,70.755272 307.423096,81.890152  z"
   id="path82" />
<path
   fill="#E3E6F7"
   opacity="1.000000"
   stroke="none"
   d=" M161.109848,103.431305   C163.966202,103.022308 167.033493,103.002739 170.556091,102.932838   C177.865814,102.799866 184.720261,102.717232 191.808777,102.272446   C194.281845,104.503166 191.808319,103.976616 190.587997,103.974831   C180.832214,103.960564 171.076523,103.880585 161.109848,103.431305  z"
   id="path84" />
<path
   fill="#F5F5EA"
   opacity="1.000000"
   stroke="none"
   d=" M233.432648,102.962463   C233.891403,102.930580 234.367020,102.980301 234.605743,102.993690   C233.093262,103.337685 231.344772,103.933800 229.590347,103.951820   C222.856293,104.020988 216.120316,103.904732 209.269913,103.436188   C209.154770,103.014717 209.624252,102.977379 209.857727,102.943840   C217.718765,102.938316 225.346344,102.966331 233.432648,102.962463  z"
   id="path86" />
<path
   fill="#FEFEFD"
   opacity="1.000000"
   stroke="none"
   d=" M306.757874,15.601793   C298.547577,16.026403 290.221954,16.023714 281.427124,15.981682   C284.088531,15.628233 287.215088,15.107624 290.350708,15.045836   C295.778381,14.938879 301.211639,15.116336 306.757874,15.601793  z"
   id="path88" />
<path
   fill="#FEFEFD"
   opacity="1.000000"
   stroke="none"
   d=" M234.904419,15.584054   C227.026169,15.990588 218.934296,16.008299 210.366150,15.999286   C213.036530,15.648373 216.178650,15.115645 219.330841,15.047389   C224.447372,14.936600 229.570465,15.130154 234.904419,15.584054  z"
   id="path90" />
<path
   fill="#F5F5E9"
   opacity="1.000000"
   stroke="none"
   d=" M282.115082,103.418137   C289.918823,103.014595 297.930908,103.001968 306.402283,102.996826   C304.768768,103.336098 302.679108,103.925499 300.582581,103.950966   C294.497650,104.024887 288.410004,103.872597 282.115082,103.418137  z"
   id="path92" />
<path
   fill="#C5CCEF"
   opacity="1.000000"
   stroke="none"
   d=" M171.017242,16.647675   C170.560623,16.835495 169.981323,16.716425 169.210907,16.363850   C169.644714,16.200491 170.269653,16.270638 171.017242,16.647675  z"
   id="path94" />
<path
   fill="#95A1E1"
   opacity="1.000000"
   stroke="none"
   d=" M174.936234,46.308800   C175.069778,46.064545 175.260452,46.047142 175.738358,46.017441   C175.941391,46.303272 175.781525,46.552948 175.350128,46.864571   C175.154236,46.974976 174.993362,46.535645 174.936234,46.308800  z"
   id="path96" />
<path
   fill="#C5CCEF"
   opacity="1.000000"
   stroke="none"
   d=" M124.714722,16.120407   C124.847267,16.456676 124.629234,16.676792 124.103340,16.889536   C124.068497,16.672205 124.258049,16.379568 124.714722,16.120407  z"
   id="path98" />
<path
   fill="#AFB8E8"
   opacity="1.000000"
   stroke="none"
   d=" M149.948898,90.305748   C150.145615,90.241890 150.444168,90.433678 150.853928,90.872971   C150.660339,90.934120 150.355530,90.747757 149.948898,90.305748  z"
   id="path100" />
<path
   fill="#000000"
   opacity="1.000000"
   stroke="none"
   d=" M86.772095,89.583954   C82.160126,94.935501 77.428055,100.200813 77.911125,108.049873   C77.957420,108.801979 76.547516,109.548790 76.241508,110.444275   C75.937874,111.332825 76.175049,112.406174 76.175049,113.699158   C70.831772,113.699158 64.196747,113.699158 57.541859,113.699158   C56.040806,104.913452 53.897236,103.441025 41.249088,102.808601   C41.066368,100.249184 40.878952,97.623962 40.691536,94.998741   C40.347755,94.980743 40.003975,94.962746 39.660191,94.944756   C38.999310,97.598267 38.338428,100.251785 37.620323,103.135071   C34.708599,102.339371 31.248676,105.070374 31.338272,98.212219   C31.410660,92.671394 33.312737,84.675385 25.206388,80.277992   C33.382286,73.676773 37.086472,65.579369 34.933754,55.335766   C38.401836,68.171585 48.484619,75.131973 59.950535,72.153969   C59.829998,74.225281 59.557922,76.189384 59.633011,78.140114   C59.825706,83.145996 63.353539,85.728920 67.293358,87.625465   C70.710480,89.270409 72.688034,91.250671 72.140053,95.380295   C71.997566,96.454041 73.568855,97.755196 74.352997,98.951904   C75.235321,97.637489 76.742355,96.374504 76.855789,94.996780   C77.032753,92.847557 76.264618,90.620522 75.697487,87.236244   C79.384521,87.923286 82.259308,88.458984 85.733719,89.133057   C86.479591,89.375603 86.625847,89.479774 86.772095,89.583954  z"
   id="path102"
   style="fill:none" />
<path
   fill="#000000"
   opacity="1.000000"
   stroke="none"
   d=" M49.704742,51.271576   C49.235886,50.570400 49.071075,50.107422 48.906269,49.644440   C50.995480,49.954884 53.078014,50.409744 55.177086,50.506729   C56.051620,50.547142 57.760021,49.751720 57.733269,49.461258   C57.418228,46.040794 56.845699,42.644043 56.248249,38.615753   C57.541523,38.729736 59.632088,38.913986 61.856579,39.110043   C61.968838,40.879463 62.061028,42.332581 62.251141,45.329147   C64.346672,43.323868 65.612556,42.112503 67.357895,40.442333   C67.962517,42.177460 68.717972,44.345448 69.245552,45.859482   C65.779800,46.049496 60.965096,45.544250 60.672306,46.469669   C59.682060,49.599548 60.294746,53.236568 60.294746,55.735081   C57.972408,56.530617 55.722973,57.478249 53.380768,58.037048   C51.977806,58.371769 50.429790,58.098495 48.946972,58.098495   C48.977501,57.632996 49.008026,57.167500 49.038555,56.702000   C50.392345,56.040340 51.746132,55.378677 53.935368,54.308697   C52.201111,53.072491 51.104954,52.291130 49.704742,51.271576  z"
   id="path104"
   style="fill:none" />
<path
   fill="#000000"
   opacity="1.000000"
   stroke="none"
   d=" M84.178833,77.033035   C80.964073,75.491707 78.148445,74.006424 74.443665,72.052101   C77.387062,70.515205 83.124153,73.312508 82.944641,67.175674   C83.881775,69.299934 84.818909,71.424194 85.800232,73.648628   C88.017738,73.356743 88.017738,73.356743 90.052208,64.572769   C91.741066,69.063980 92.971474,72.336006 94.305542,75.883736   C91.292664,76.257057 87.935318,76.673065 84.178833,77.033035  z"
   id="path106"
   style="fill:none" />
<path
   fill="#000000"
   opacity="1.000000"
   stroke="none"
   d=" M69.439499,64.893372   C70.657776,64.054756 72.180504,63.534458 73.647453,62.887653   C75.603676,62.025108 77.516533,61.064224 80.980927,59.416500   C79.553444,62.700691 78.974297,66.157722 77.750427,66.403435   C75.257332,66.903969 72.416603,65.672951 69.439499,64.893372  z"
   id="path108"
   style="fill:none" />
<path
   fill="#000000"
   opacity="1.000000"
   stroke="none"
   d=" M83.960846,59.981377   C82.792206,59.045879 81.624710,58.488117 79.405205,57.427761   C80.888222,56.573467 82.201439,55.305126 83.623970,55.167618   C84.667671,55.066727 86.834511,56.490917 86.805542,57.162277   C86.689972,59.840805 89.813934,63.648010 83.961990,65.153557   C83.961990,63.459171 83.961990,61.909142 83.960846,59.981377  z"
   id="path110"
   style="fill:none" />
<path
   fill="#000000"
   opacity="1.000000"
   stroke="none"
   d=" M96.298431,66.869568   C94.245560,64.528519 92.601875,62.099472 90.961884,59.675873   C92.853302,58.803410 94.377693,58.100246 96.707619,57.025505   C96.707619,60.516861 96.707619,63.649208 96.298431,66.869568  z"
   id="path112"
   style="fill:none" />
<path
   fill="#000000"
   opacity="1.000000"
   stroke="none"
   d=" M83.283272,48.999344   C86.706314,48.765762 89.694992,48.531456 93.819252,48.208118   C90.053818,51.940678 87.424095,52.886543 83.913788,50.666302   C82.881287,50.013256 80.774826,51.058189 79.146683,51.327236   C79.146683,50.562218 79.146683,49.455387 79.146683,48.041115   C80.518921,48.396015 81.683914,48.697311 83.283272,48.999344  z"
   id="path114"
   style="fill:none" />
<path
   fill="#000000"
   opacity="1.000000"
   stroke="none"
   d=" M65.976540,57.966637   C66.220734,57.053246 66.400635,56.145676 66.760887,56.067318   C68.714394,55.642441 70.712471,55.422474 73.482895,55.936832   C70.934822,57.660263 68.386749,59.383694 65.337563,61.446060   C65.641800,60.016766 65.818642,59.185982 65.976540,57.966637  z"
   id="path116"
   style="fill:none" />
<path
   fill="#000000"
   opacity="1.000000"
   stroke="none"
   d=" M86.127945,89.097198   C87.018028,85.026672 89.226585,82.446594 93.881111,82.697662   C91.673561,84.853455 89.466011,87.009247 87.015274,89.374496   C86.625847,89.479774 86.479591,89.375603 86.127945,89.097198  z"
   id="path118"
   style="fill:none" />
<path
   fill="#000000"
   opacity="1.000000"
   stroke="none"
   d=" M73.996864,51.353912   C74.087692,50.452229 74.174507,49.976509 74.261322,49.500786   C74.360458,49.509998 74.459595,49.519211 74.558731,49.528419   C74.558731,50.988823 74.558731,52.449223 74.558731,53.909622   C74.291298,53.892532 74.023865,53.875443 73.756432,53.858353   C73.835236,53.165527 73.914047,52.472698 73.996864,51.353912  z"
   id="path120"
   style="fill:none" />
</svg>
